<?xml version="1.0" standalone="no"?>
<!DOCTYPE svg PUBLIC "-//W3C//DTD SVG 20010904//EN"
 "http://www.w3.org/TR/2001/REC-SVG-20010904/DTD/svg10.dtd">
<svg version="1.0" xmlns="http://www.w3.org/2000/svg"
 width="794.000000pt" height="794.000000pt" viewBox="0 0 794.000000 794.000000"
 preserveAspectRatio="xMidYMid meet">
<metadata>
Created by potrace 1.11, written by Peter Selinger 2001-2013
</metadata>
<g transform="translate(0.000000,794.000000) scale(0.100000,-0.100000)"
fill="#000000" stroke="none">
<path d="M6307 7934 c-5 -5 -193 -28 -234 -29 -18 0 -33 -2 -33 -5 0 -4 -10
-6 -22 -7 -27 0 -127 -13 -148 -18 -8 -2 -40 -6 -70 -9 -30 -4 -66 -8 -80 -10
-14 -3 -52 -8 -85 -11 -33 -4 -69 -9 -80 -10 -11 -2 -45 -6 -75 -10 -30 -3
-66 -8 -80 -10 -14 -2 -51 -7 -83 -10 -32 -4 -68 -8 -80 -11 -12 -3 -44 -7
-72 -9 -27 -3 -61 -7 -75 -10 -14 -3 -47 -7 -75 -10 -27 -3 -66 -8 -85 -10
-43 -7 -89 -13 -155 -20 -27 -3 -77 -10 -110 -15 -33 -5 -78 -11 -100 -14 -22
-3 -65 -8 -95 -12 -30 -3 -63 -8 -72 -9 -9 -2 -43 -6 -75 -10 -32 -3 -69 -8
-83 -10 -45 -6 -104 -15 -147 -20 -98 -12 -129 -16 -153 -20 -14 -2 -52 -7
-85 -10 -33 -3 -67 -8 -75 -10 -8 -2 -40 -6 -71 -10 -31 -3 -67 -8 -80 -11
-13 -3 -31 -6 -39 -5 -8 0 -49 -5 -90 -10 -84 -12 -113 -15 -185 -24 -27 -3
-97 -12 -155 -20 -58 -8 -125 -17 -150 -20 -81 -10 -114 -14 -150 -20 -19 -3
-55 -8 -80 -10 -25 -3 -61 -8 -80 -12 -19 -4 -525 -9 -1123 -10 -1177 -4
-1129 -1 -1159 -56 -9 -17 -12 -822 -12 -3642 -1 -1991 2 -3638 5 -3660 5 -25
17 -49 36 -65 l28 -25 2795 1 c1537 0 2804 3 2815 7 12 4 29 20 38 37 16 27
18 63 19 360 0 240 3 330 12 331 6 0 20 2 31 5 11 2 43 6 70 9 28 3 68 8 90
11 22 2 56 7 75 9 19 2 71 9 116 15 99 13 156 19 214 25 25 2 45 4 45 5 0 1
21 4 119 15 28 3 59 8 70 10 12 2 48 7 81 10 33 3 71 7 85 9 14 3 45 7 70 10
34 4 53 14 76 40 28 29 31 39 29 82 -3 56 -14 159 -20 189 -2 11 -7 45 -10 75
-3 30 -8 66 -10 80 -2 14 -7 52 -10 85 -4 33 -11 92 -16 130 -6 39 -12 84 -13
100 -4 39 -14 122 -27 215 -6 41 -12 93 -14 115 -2 22 -7 62 -10 90 -11 77
-13 95 -20 165 -4 36 -9 73 -11 84 -2 10 -6 44 -9 75 -4 31 -9 67 -11 81 -3
14 -7 45 -9 70 -5 54 -13 122 -19 159 -3 14 -7 51 -11 81 -3 30 -7 71 -10 90
-2 19 -7 58 -11 85 -4 28 -8 61 -9 75 -2 14 -6 48 -9 75 -4 28 -9 70 -12 95
-3 25 -7 56 -9 70 -2 14 -7 50 -10 80 -3 30 -8 66 -10 80 -2 14 -6 50 -10 80
-3 30 -8 72 -11 93 -3 21 -8 57 -10 80 -5 43 -8 67 -19 147 -3 25 -8 63 -10
85 -1 22 -4 40 -5 40 -1 0 -3 14 -4 30 -5 45 -18 157 -23 185 -2 14 -5 41 -7
60 -2 19 -6 55 -10 80 -6 44 -13 104 -21 183 -2 21 -7 55 -10 75 -4 21 -8 55
-10 77 -4 45 -13 114 -19 154 -4 22 -10 72 -21 171 -1 14 -6 48 -9 75 -4 28
-10 70 -13 95 -2 25 -6 56 -8 70 -2 14 -6 52 -9 85 -4 33 -9 71 -12 85 -2 14
-7 48 -10 75 -3 28 -7 64 -10 80 -2 17 -6 50 -8 75 -3 25 -8 61 -11 80 -3 19
-8 55 -10 80 -3 25 -7 61 -10 80 -2 19 -6 58 -9 85 -4 28 -8 64 -10 80 -3 17
-7 57 -11 90 -4 33 -9 71 -11 85 -2 14 -7 48 -10 75 -3 28 -9 82 -14 120 -6
39 -12 94 -15 123 -3 29 -7 63 -10 75 -3 12 -7 45 -10 72 -2 28 -7 68 -10 90
-11 83 -16 129 -20 174 -3 25 -7 57 -10 71 -2 14 -7 50 -11 80 -10 93 -12 103
-18 155 -10 73 -15 114 -21 170 -3 28 -8 61 -10 75 -2 14 -7 50 -10 80 -4 30
-9 66 -10 80 -2 14 -7 57 -11 95 -4 39 -8 77 -10 85 -1 8 -3 23 -3 34 -1 10
-17 34 -36 53 -31 31 -39 34 -85 32 -27 -2 -51 -4 -53 -5z m-2 -294 c4 -36 9
-76 11 -90 2 -14 6 -45 9 -70 3 -25 8 -58 10 -75 4 -28 15 -127 20 -170 1 -11
5 -42 9 -70 10 -70 14 -101 21 -170 3 -33 8 -72 11 -87 2 -16 6 -40 8 -55 3
-16 7 -53 10 -83 7 -63 14 -119 21 -171 3 -20 8 -59 11 -85 2 -27 7 -60 9 -74
2 -14 7 -51 10 -83 4 -32 8 -66 10 -76 4 -20 17 -126 31 -251 10 -91 12 -104
18 -140 2 -19 8 -60 11 -90 4 -30 8 -66 10 -80 2 -14 6 -50 9 -80 3 -30 7 -64
10 -75 2 -11 7 -47 11 -80 3 -33 9 -76 11 -95 3 -19 7 -53 9 -75 2 -22 6 -56
10 -75 3 -19 7 -55 10 -80 2 -25 7 -61 10 -80 3 -19 8 -57 10 -85 2 -27 4 -50
5 -50 2 0 6 -25 14 -100 3 -33 8 -71 11 -85 3 -14 7 -47 10 -75 2 -27 6 -63 9
-80 2 -16 8 -59 12 -95 10 -92 12 -105 14 -105 1 0 3 -18 4 -40 2 -22 6 -62
10 -90 10 -69 13 -100 21 -170 4 -33 9 -71 11 -85 9 -52 17 -126 17 -147 -1
-13 2 -23 6 -23 3 0 6 -15 7 -32 0 -37 11 -142 18 -173 2 -11 7 -49 11 -85 3
-36 9 -78 11 -95 3 -16 6 -48 8 -70 2 -22 6 -56 9 -75 4 -19 9 -57 12 -85 3
-27 7 -63 9 -80 3 -16 7 -52 10 -80 3 -27 8 -59 10 -70 2 -11 7 -51 11 -89 4
-38 9 -79 11 -90 2 -12 6 -46 8 -76 3 -30 7 -66 10 -80 2 -14 7 -49 10 -79 4
-30 9 -64 11 -75 3 -12 7 -46 10 -76 6 -66 12 -122 20 -170 2 -19 8 -62 11
-95 8 -76 12 -104 29 -225 3 -19 7 -57 11 -85 11 -95 12 -110 18 -155 4 -25 9
-65 11 -90 2 -25 7 -56 9 -70 3 -14 8 -52 11 -85 18 -162 27 -230 31 -236 2
-4 5 -28 6 -53 0 -26 4 -49 8 -51 11 -7 -1 -55 -14 -56 -6 0 -18 -2 -26 -3 -8
-2 -44 -6 -80 -10 -36 -4 -78 -9 -95 -11 -33 -5 -95 -12 -170 -20 -27 -3 -70
-8 -95 -11 -25 -3 -65 -7 -90 -10 -25 -3 -56 -6 -70 -9 -14 -2 -56 -7 -95 -10
-38 -4 -77 -8 -87 -10 -9 -2 -49 -7 -87 -11 l-69 -6 0 3203 c0 2262 -4 3212
-11 3232 -23 59 7 57 -1012 57 -513 0 -934 1 -935 3 -2 2 2 4 9 4 15 1 113 13
147 18 14 2 50 7 80 10 30 4 64 8 75 10 11 1 49 6 85 10 36 4 74 9 85 11 11 3
43 7 70 10 77 8 110 13 110 14 0 1 16 3 35 5 55 6 160 19 230 29 88 12 135 18
170 21 19 2 55 6 80 10 25 4 56 9 70 10 14 1 43 5 65 9 22 3 99 13 170 21 72
9 141 18 155 20 14 2 50 6 80 10 30 3 66 8 80 10 25 4 111 15 160 20 66 7 135
17 139 21 10 10 20 -24 26 -86z m-380 -399 c7 -1 10 -1122 10 -3511 l0 -3510
-2661 0 -2662 0 0 3507 c0 1930 1 3510 3 3513 3 4 5274 5 5310 1z"/>
<path d="M3233 5475 c-129 -29 -211 -134 -212 -271 0 -91 70 -201 149 -234
l31 -13 -2 -98 c-2 -88 -5 -99 -21 -99 -10 0 -156 0 -324 0 -185 -1 -314 -5
-325 -11 -64 -34 -54 -143 15 -165 30 -10 236 -11 236 -1 0 5 5 5 11 1 16 -10
58 -11 92 -2 15 3 27 4 27 0 0 -4 115 -7 255 -7 140 0 255 4 255 8 0 5 5 5 11
1 16 -10 58 -11 92 -2 15 3 27 4 27 0 0 -4 97 -7 215 -7 118 0 215 3 215 7 0
4 7 5 15 2 22 -9 305 -10 305 -2 0 4 7 5 15 1 23 -8 225 -9 225 -1 0 4 6 5 13
2 23 -8 86 -11 99 -3 7 4 16 5 22 2 5 -4 42 -6 82 -6 l72 1 0 -994 0 -994 -27
0 c-38 -1 -2991 -1 -3022 0 l-26 0 1 993 1 992 33 0 c17 0 32 3 32 8 0 4 5 5
11 1 15 -9 128 -11 123 -2 -3 4 5 4 17 0 29 -11 97 1 116 21 40 40 28 122 -22
145 -29 14 -404 16 -438 3 -50 -19 -55 -46 -56 -295 0 -125 -2 -231 -5 -233
-3 -3 -70 -6 -148 -7 -148 -2 -178 -9 -198 -46 -6 -12 -10 -220 -10 -590 l0
-572 29 -29 29 -29 151 0 151 0 1 -77 c0 -43 0 -151 0 -241 l0 -163 28 -31 28
-31 1656 0 c1546 0 1657 1 1682 17 14 9 30 28 35 42 6 14 10 129 10 255 l0
229 151 0 151 0 29 29 29 30 -2 581 -3 582 -28 22 c-27 21 -38 23 -169 22 -77
-1 -144 1 -148 4 -5 3 -10 114 -12 248 -3 236 -4 242 -26 264 l-23 23 -765 5
c-421 3 -771 2 -777 -2 -29 -18 -37 4 -37 101 0 96 0 96 28 109 44 19 99 75
126 127 47 94 27 224 -47 303 -61 65 -166 97 -254 77z m126 -207 c25 -30 21
-92 -8 -121 -46 -47 -135 -19 -147 47 -6 32 21 93 44 100 37 10 92 -2 111 -26z
m-1789 -1283 c1 -56 1 -656 0 -777 l0 -78 -90 0 -90 0 0 448 c0 247 2 451 5
453 2 3 43 5 90 5 l85 -1 0 -50z m3618 -402 l2 -453 -90 0 -90 0 0 453 0 453
88 -1 87 0 3 -452z"/>
<path d="M2249 4747 c-23 -17 -39 -52 -39 -84 1 -43 30 -74 76 -80 33 -4 46
-1 69 20 38 32 41 95 8 128 -24 25 -90 33 -114 16z"/>
<path d="M2482 4020 c-53 -17 -77 -34 -120 -80 -94 -102 -85 -271 21 -372 164
-156 441 -45 452 181 9 192 -171 330 -353 271z m146 -194 c34 -35 35 -83 4
-116 -15 -16 -38 -32 -52 -35 -34 -7 -85 25 -98 62 -29 86 85 156 146 89z"/>
<path d="M3957 4029 c-173 -39 -263 -229 -183 -387 127 -250 505 -159 509 122
2 170 -159 302 -326 265z m121 -205 c59 -58 2 -163 -80 -147 -66 13 -94 99
-48 148 37 39 88 39 128 -1z"/>
<path d="M2836 3492 c-58 -7 -86 -41 -90 -109 -1 -13 2 -23 6 -23 4 0 5 -6 2
-14 -8 -22 25 -136 59 -201 40 -76 148 -183 218 -218 112 -54 129 -58 250 -62
83 -3 107 0 175 23 43 15 104 44 135 64 58 40 151 133 141 142 -3 3 -1 6 5 6
8 0 63 105 69 133 1 4 2 8 4 10 3 3 10 37 17 82 14 91 1 138 -45 157 -25 10
-869 18 -946 10z m802 -186 c1 -2 -9 -28 -23 -57 -35 -76 -89 -130 -166 -170
-56 -28 -81 -33 -170 -33 -65 0 -85 4 -140 31 -95 47 -164 124 -190 210 -7 22
-5 22 89 25 117 4 595 -1 600 -6z"/>
</g>
</svg>
