<svg width="1611" height="579" viewBox="0 0 1611 579" fill="none" xmlns="http://www.w3.org/2000/svg">
<g clip-path="url(#clip0)">
<path d="M149.733 270.333C132.798 270.333 119.067 284.064 119.067 301C119.067 317.936 132.798 331.667 149.733 331.667C166.669 331.667 180.4 317.936 180.4 301C180.379 284.07 166.663 270.354 149.733 270.333ZM149.733 319.4C139.572 319.4 131.333 311.161 131.333 301C131.333 290.839 139.572 282.6 149.733 282.6C159.895 282.6 168.133 290.839 168.133 301C168.133 311.161 159.895 319.4 149.733 319.4Z" fill="#F0F8FF"/>
<path d="M272.4 202.867C289.336 202.867 303.067 189.136 303.067 172.2C303.067 155.264 289.336 141.533 272.4 141.533C255.464 141.533 241.733 155.264 241.733 172.2C241.754 189.13 255.47 202.846 272.4 202.867ZM272.4 153.8C282.561 153.8 290.8 162.039 290.8 172.2C290.8 182.361 282.561 190.6 272.4 190.6C262.239 190.6 254 182.361 254 172.2C254 162.039 262.239 153.8 272.4 153.8Z" fill="#F0F8FF"/>
<path d="M419.6 303.599V282.6C419.552 267.189 408.052 254.218 392.761 252.32L327.268 178.145C327.483 176.168 327.594 174.186 327.6 172.2C327.6 141.713 302.887 117 272.4 117C241.913 117 217.2 141.713 217.2 172.2C217.2 173.176 217.299 174.126 217.347 175.084L146.463 245.965C124.23 247.232 104.949 261.768 97.609 282.795C90.2687 303.821 96.3182 327.198 112.933 342.026V435.933H76.1333C72.7462 435.933 70 438.68 70 442.067V478.867C70 482.254 72.7462 485 76.1333 485H309.2C312.587 485 315.333 482.254 315.333 478.867V442.067C315.333 438.68 312.587 435.933 309.2 435.933H186.533V342.026C200.612 329.633 207.287 310.844 204.185 292.345L269.273 227.241C270.316 227.301 271.346 227.4 272.4 227.4C275.521 227.382 278.632 227.098 281.705 226.552L358.267 286.895V303.611C347.108 308.484 339.888 319.493 339.867 331.667V393C339.855 395.132 340.951 397.115 342.76 398.241C344.571 399.367 346.836 399.472 348.74 398.519L373.274 386.253C375.364 385.211 376.679 383.069 376.667 380.733V337.8H401.2V380.733C401.188 383.069 402.503 385.211 404.593 386.253L429.126 398.519C431.031 399.472 433.295 399.367 435.107 398.241C436.916 397.115 438.012 395.132 438 393V331.667C437.985 319.487 430.762 308.472 419.6 303.599ZM272.4 129.267C296.113 129.267 315.333 148.487 315.333 172.2C315.333 195.913 296.113 215.133 272.4 215.133C248.687 215.133 229.467 195.913 229.467 172.2C229.494 148.499 248.699 129.294 272.4 129.267ZM303.067 472.733H82.2667V448.2H303.067V472.733ZM174.267 435.933H125.2V350.372C140.635 358.138 158.832 358.138 174.267 350.372V435.933ZM149.733 343.933C126.021 343.933 106.8 324.713 106.8 301C106.8 277.287 126.021 258.067 149.733 258.067C173.446 258.067 192.667 277.287 192.667 301C192.64 324.701 173.434 343.906 149.733 343.933ZM200.279 278.919C193.299 263.062 179.295 251.385 162.44 247.363L220.096 189.711C225.6 206.056 238.403 218.904 254.731 224.462L200.279 278.919ZM323.656 192.583L377.936 254.063C369.53 257.333 362.989 264.14 360.058 272.669L295.867 222.087C308.52 216.113 318.448 205.571 323.656 192.583ZM370.533 282.6C370.533 272.439 378.772 264.2 388.933 264.2C399.095 264.2 407.333 272.439 407.333 282.6V301H370.533V282.6ZM425.733 383.075L413.467 376.942V331.667C413.467 328.28 410.72 325.533 407.333 325.533H370.533C367.146 325.533 364.4 328.28 364.4 331.667V376.942L352.133 383.075V331.667C352.133 321.505 360.372 313.267 370.533 313.267H407.333C417.495 313.267 425.733 321.505 425.733 331.667V383.075Z" fill="#F0F8FF"/>
<path d="M143.6 374.6C140.213 374.6 137.467 377.346 137.467 380.733V417.533C137.467 420.92 140.213 423.667 143.6 423.667C146.987 423.667 149.733 420.92 149.733 417.533V380.733C149.733 377.346 146.987 374.6 143.6 374.6Z" fill="#F0F8FF"/>
<path d="M212.864 216.93L188.33 241.464C186.737 243.003 186.096 245.285 186.659 247.429C187.219 249.573 188.893 251.248 191.038 251.808C193.182 252.371 195.464 251.73 197.003 250.136L221.536 225.603C223.86 223.195 223.827 219.371 221.462 217.005C219.096 214.639 215.271 214.606 212.864 216.93Z" fill="#F0F8FF"/>
</g>
<path d="M629.58 128.5H647.88L688.38 235H667.08L657.18 208.45H619.98L610.23 235H588.93L629.58 128.5ZM653.43 193.9L638.73 152.05L623.43 193.9H653.43ZM720.353 236.5C712.253 236.5 706.103 233.9 701.903 228.7C697.703 223.5 695.603 215.8 695.603 205.6V156.4H715.703V201.25C715.703 213.35 720.053 219.4 728.753 219.4C732.653 219.4 736.403 218.25 740.003 215.95C743.703 213.55 746.703 209.95 749.003 205.15V156.4H769.103V211.9C769.103 214 769.453 215.5 770.153 216.4C770.953 217.3 772.203 217.8 773.903 217.9V235C771.903 235.4 770.203 235.65 768.803 235.75C767.503 235.85 766.303 235.9 765.203 235.9C761.603 235.9 758.653 235.1 756.353 233.5C754.153 231.8 752.853 229.5 752.453 226.6L752.003 220.3C748.503 225.7 744.003 229.75 738.503 232.45C733.003 235.15 726.953 236.5 720.353 236.5ZM836.178 230.95C833.478 232.15 830.178 233.35 826.278 234.55C822.378 235.75 818.278 236.35 813.978 236.35C811.178 236.35 808.528 236 806.028 235.3C803.628 234.6 801.478 233.5 799.578 232C797.778 230.4 796.328 228.4 795.228 226C794.128 223.5 793.578 220.5 793.578 217V171.85H783.228V156.4H793.578V130.9H813.678V156.4H830.178V171.85H813.678V210.25C813.678 213.05 814.378 215.05 815.778 216.25C817.278 217.35 819.078 217.9 821.178 217.9C823.278 217.9 825.328 217.55 827.328 216.85C829.328 216.15 830.928 215.55 832.128 215.05L836.178 230.95ZM881.042 236.5C874.642 236.5 868.892 235.4 863.792 233.2C858.692 231 854.342 228.05 850.742 224.35C847.242 220.55 844.542 216.2 842.642 211.3C840.742 206.4 839.792 201.25 839.792 195.85C839.792 190.35 840.742 185.15 842.642 180.25C844.542 175.35 847.242 171.05 850.742 167.35C854.342 163.55 858.692 160.55 863.792 158.35C868.892 156.15 874.642 155.05 881.042 155.05C887.442 155.05 893.142 156.15 898.142 158.35C903.242 160.55 907.542 163.55 911.042 167.35C914.642 171.05 917.392 175.35 919.292 180.25C921.192 185.15 922.142 190.35 922.142 195.85C922.142 201.25 921.192 206.4 919.292 211.3C917.392 216.2 914.692 220.55 911.192 224.35C907.692 228.05 903.392 231 898.292 233.2C893.192 235.4 887.442 236.5 881.042 236.5ZM860.492 195.85C860.492 199.35 860.992 202.55 861.992 205.45C863.092 208.25 864.542 210.7 866.342 212.8C868.242 214.9 870.442 216.55 872.942 217.75C875.442 218.85 878.142 219.4 881.042 219.4C883.942 219.4 886.642 218.85 889.142 217.75C891.642 216.55 893.792 214.9 895.592 212.8C897.492 210.7 898.942 208.2 899.942 205.3C901.042 202.4 901.592 199.2 901.592 195.7C901.592 192.3 901.042 189.15 899.942 186.25C898.942 183.35 897.492 180.85 895.592 178.75C893.792 176.65 891.642 175.05 889.142 173.95C886.642 172.75 883.942 172.15 881.042 172.15C878.142 172.15 875.442 172.75 872.942 173.95C870.442 175.15 868.242 176.8 866.342 178.9C864.542 181 863.092 183.5 861.992 186.4C860.992 189.3 860.492 192.45 860.492 195.85ZM1057.81 235H1037.71V190.9C1037.71 184.6 1036.61 180 1034.41 177.1C1032.31 174.2 1029.36 172.75 1025.56 172.75C1021.56 172.75 1017.81 174.3 1014.31 177.4C1010.81 180.4 1008.31 184.35 1006.81 189.25V235H986.709V190.9C986.709 184.6 985.609 180 983.409 177.1C981.309 174.2 978.359 172.75 974.559 172.75C970.659 172.75 966.909 174.25 963.309 177.25C959.809 180.25 957.309 184.2 955.809 189.1V235H935.709V156.4H953.859V170.95C956.759 165.85 960.709 161.95 965.709 159.25C970.809 156.45 976.609 155.05 983.109 155.05C989.709 155.05 994.809 156.65 998.409 159.85C1002.01 163.05 1004.31 167 1005.31 171.7C1008.51 166.3 1012.56 162.2 1017.46 159.4C1022.36 156.5 1027.96 155.05 1034.26 155.05C1039.06 155.05 1043.01 155.95 1046.11 157.75C1049.21 159.55 1051.61 161.9 1053.31 164.8C1055.01 167.7 1056.16 171 1056.76 174.7C1057.46 178.4 1057.81 182.15 1057.81 185.95V235ZM1096.76 236.5C1092.96 236.5 1089.41 235.9 1086.11 234.7C1082.81 233.4 1079.96 231.65 1077.56 229.45C1075.16 227.15 1073.26 224.5 1071.86 221.5C1070.56 218.5 1069.91 215.2 1069.91 211.6C1069.91 207.9 1070.71 204.5 1072.31 201.4C1074.01 198.2 1076.31 195.5 1079.21 193.3C1082.21 191.1 1085.76 189.4 1089.86 188.2C1093.96 186.9 1098.46 186.25 1103.36 186.25C1106.86 186.25 1110.26 186.55 1113.56 187.15C1116.96 187.75 1119.96 188.6 1122.56 189.7V185.2C1122.56 180 1121.06 176 1118.06 173.2C1115.16 170.4 1110.81 169 1105.01 169C1100.81 169 1096.71 169.75 1092.71 171.25C1088.71 172.75 1084.61 174.95 1080.41 177.85L1074.26 165.1C1084.36 158.4 1095.26 155.05 1106.96 155.05C1118.26 155.05 1127.01 157.85 1133.21 163.45C1139.51 168.95 1142.66 176.95 1142.66 187.45V211.9C1142.66 214 1143.01 215.5 1143.71 216.4C1144.51 217.3 1145.76 217.8 1147.46 217.9V235C1144.06 235.7 1141.11 236.05 1138.61 236.05C1134.81 236.05 1131.86 235.2 1129.76 233.5C1127.76 231.8 1126.51 229.55 1126.01 226.75L1125.56 222.4C1122.06 227 1117.81 230.5 1112.81 232.9C1107.81 235.3 1102.46 236.5 1096.76 236.5ZM1102.46 221.8C1105.86 221.8 1109.06 221.2 1112.06 220C1115.16 218.8 1117.56 217.2 1119.26 215.2C1121.46 213.5 1122.56 211.6 1122.56 209.5V200.5C1120.16 199.6 1117.56 198.9 1114.76 198.4C1111.96 197.8 1109.26 197.5 1106.66 197.5C1101.46 197.5 1097.21 198.7 1093.91 201.1C1090.61 203.4 1088.96 206.35 1088.96 209.95C1088.96 213.35 1090.26 216.2 1092.86 218.5C1095.46 220.7 1098.66 221.8 1102.46 221.8ZM1207.96 230.95C1205.26 232.15 1201.96 233.35 1198.06 234.55C1194.16 235.75 1190.06 236.35 1185.76 236.35C1182.96 236.35 1180.31 236 1177.81 235.3C1175.41 234.6 1173.26 233.5 1171.36 232C1169.56 230.4 1168.11 228.4 1167.01 226C1165.91 223.5 1165.36 220.5 1165.36 217V171.85H1155.01V156.4H1165.36V130.9H1185.46V156.4H1201.96V171.85H1185.46V210.25C1185.46 213.05 1186.16 215.05 1187.56 216.25C1189.06 217.35 1190.86 217.9 1192.96 217.9C1195.06 217.9 1197.11 217.55 1199.11 216.85C1201.11 216.15 1202.71 215.55 1203.91 215.05L1207.96 230.95ZM1218.42 235V156.4H1238.52V235H1218.42ZM1218.42 145.45V125.5H1238.52V145.45H1218.42ZM1292.96 236.5C1286.56 236.5 1280.81 235.4 1275.71 233.2C1270.61 231 1266.26 228.05 1262.66 224.35C1259.16 220.55 1256.46 216.2 1254.56 211.3C1252.66 206.4 1251.71 201.25 1251.71 195.85C1251.71 190.35 1252.66 185.15 1254.56 180.25C1256.46 175.35 1259.16 171.05 1262.66 167.35C1266.26 163.55 1270.61 160.55 1275.71 158.35C1280.81 156.15 1286.56 155.05 1292.96 155.05C1299.36 155.05 1305.06 156.15 1310.06 158.35C1315.16 160.55 1319.46 163.55 1322.96 167.35C1326.56 171.05 1329.31 175.35 1331.21 180.25C1333.11 185.15 1334.06 190.35 1334.06 195.85C1334.06 201.25 1333.11 206.4 1331.21 211.3C1329.31 216.2 1326.61 220.55 1323.11 224.35C1319.61 228.05 1315.31 231 1310.21 233.2C1305.11 235.4 1299.36 236.5 1292.96 236.5ZM1272.41 195.85C1272.41 199.35 1272.91 202.55 1273.91 205.45C1275.01 208.25 1276.46 210.7 1278.26 212.8C1280.16 214.9 1282.36 216.55 1284.86 217.75C1287.36 218.85 1290.06 219.4 1292.96 219.4C1295.86 219.4 1298.56 218.85 1301.06 217.75C1303.56 216.55 1305.71 214.9 1307.51 212.8C1309.41 210.7 1310.86 208.2 1311.86 205.3C1312.96 202.4 1313.51 199.2 1313.51 195.7C1313.51 192.3 1312.96 189.15 1311.86 186.25C1310.86 183.35 1309.41 180.85 1307.51 178.75C1305.71 176.65 1303.56 175.05 1301.06 173.95C1298.56 172.75 1295.86 172.15 1292.96 172.15C1290.06 172.15 1287.36 172.75 1284.86 173.95C1282.36 175.15 1280.16 176.8 1278.26 178.9C1276.46 181 1275.01 183.5 1273.91 186.4C1272.91 189.3 1272.41 192.45 1272.41 195.85ZM1420.67 235H1400.57V190.9C1400.57 184.6 1399.47 180 1397.27 177.1C1395.07 174.2 1392.02 172.75 1388.12 172.75C1386.12 172.75 1384.07 173.15 1381.97 173.95C1379.87 174.75 1377.87 175.9 1375.97 177.4C1374.17 178.8 1372.52 180.5 1371.02 182.5C1369.52 184.5 1368.42 186.7 1367.72 189.1V235H1347.62V156.4H1365.77V170.95C1368.67 165.95 1372.87 162.05 1378.37 159.25C1383.87 156.45 1390.07 155.05 1396.97 155.05C1401.87 155.05 1405.87 155.95 1408.97 157.75C1412.07 159.55 1414.47 161.9 1416.17 164.8C1417.87 167.7 1419.02 171 1419.62 174.7C1420.32 178.4 1420.67 182.15 1420.67 185.95V235ZM844.98 342.75V411H824.28V304.5H840.33L895.83 374.4V304.65H916.53V411H899.73L844.98 342.75ZM972.159 412.5C965.859 412.5 960.159 411.45 955.059 409.35C949.959 407.15 945.609 404.2 942.009 400.5C938.409 396.8 935.609 392.5 933.609 387.6C931.709 382.7 930.759 377.55 930.759 372.15C930.759 366.55 931.709 361.3 933.609 356.4C935.509 351.4 938.259 347.05 941.859 343.35C945.459 339.55 949.809 336.55 954.909 334.35C960.109 332.15 965.909 331.05 972.309 331.05C978.709 331.05 984.409 332.15 989.409 334.35C994.509 336.55 998.809 339.5 1002.31 343.2C1005.91 346.9 1008.61 351.2 1010.41 356.1C1012.31 361 1013.26 366.1 1013.26 371.4C1013.26 372.7 1013.21 373.95 1013.11 375.15C1013.11 376.35 1013.01 377.35 1012.81 378.15H952.059C952.359 381.25 953.109 384 954.309 386.4C955.509 388.8 957.059 390.85 958.959 392.55C960.859 394.25 963.009 395.55 965.409 396.45C967.809 397.35 970.309 397.8 972.909 397.8C976.909 397.8 980.659 396.85 984.159 394.95C987.759 392.95 990.209 390.35 991.509 387.15L1008.76 391.95C1005.86 397.95 1001.21 402.9 994.809 406.8C988.509 410.6 980.959 412.5 972.159 412.5ZM992.559 365.1C992.059 359.2 989.859 354.5 985.959 351C982.159 347.4 977.509 345.6 972.009 345.6C969.309 345.6 966.759 346.1 964.359 347.1C962.059 348 960.009 349.3 958.209 351C956.409 352.7 954.909 354.75 953.709 357.15C952.609 359.55 951.959 362.2 951.759 365.1H992.559ZM1072.02 406.95C1069.32 408.15 1066.02 409.35 1062.12 410.55C1058.22 411.75 1054.12 412.35 1049.82 412.35C1047.02 412.35 1044.37 412 1041.87 411.3C1039.47 410.6 1037.32 409.5 1035.42 408C1033.62 406.4 1032.17 404.4 1031.07 402C1029.97 399.5 1029.42 396.5 1029.42 393V347.85H1019.07V332.4H1029.42V306.9H1049.52V332.4H1066.02V347.85H1049.52V386.25C1049.52 389.05 1050.22 391.05 1051.62 392.25C1053.12 393.35 1054.92 393.9 1057.02 393.9C1059.12 393.9 1061.17 393.55 1063.17 392.85C1065.17 392.15 1066.77 391.55 1067.97 391.05L1072.02 406.95ZM1179.99 332.4H1199.04L1166.19 411H1149.69L1136.19 376.5L1122.84 411H1106.34L1073.64 332.4H1092.54L1115.94 392.1L1125.54 366.6L1111.74 332.55H1127.94L1136.19 356.7L1144.59 332.55H1160.79L1147.14 366.6L1156.59 392.1L1179.99 332.4ZM1241.83 412.5C1235.43 412.5 1229.68 411.4 1224.58 409.2C1219.48 407 1215.13 404.05 1211.53 400.35C1208.03 396.55 1205.33 392.2 1203.43 387.3C1201.53 382.4 1200.58 377.25 1200.58 371.85C1200.58 366.35 1201.53 361.15 1203.43 356.25C1205.33 351.35 1208.03 347.05 1211.53 343.35C1215.13 339.55 1219.48 336.55 1224.58 334.35C1229.68 332.15 1235.43 331.05 1241.83 331.05C1248.23 331.05 1253.93 332.15 1258.93 334.35C1264.03 336.55 1268.33 339.55 1271.83 343.35C1275.43 347.05 1278.18 351.35 1280.08 356.25C1281.98 361.15 1282.93 366.35 1282.93 371.85C1282.93 377.25 1281.98 382.4 1280.08 387.3C1278.18 392.2 1275.48 396.55 1271.98 400.35C1268.48 404.05 1264.18 407 1259.08 409.2C1253.98 411.4 1248.23 412.5 1241.83 412.5ZM1221.28 371.85C1221.28 375.35 1221.78 378.55 1222.78 381.45C1223.88 384.25 1225.33 386.7 1227.13 388.8C1229.03 390.9 1231.23 392.55 1233.73 393.75C1236.23 394.85 1238.93 395.4 1241.83 395.4C1244.73 395.4 1247.43 394.85 1249.93 393.75C1252.43 392.55 1254.58 390.9 1256.38 388.8C1258.28 386.7 1259.73 384.2 1260.73 381.3C1261.83 378.4 1262.38 375.2 1262.38 371.7C1262.38 368.3 1261.83 365.15 1260.73 362.25C1259.73 359.35 1258.28 356.85 1256.38 354.75C1254.58 352.65 1252.43 351.05 1249.93 349.95C1247.43 348.75 1244.73 348.15 1241.83 348.15C1238.93 348.15 1236.23 348.75 1233.73 349.95C1231.23 351.15 1229.03 352.8 1227.13 354.9C1225.33 357 1223.88 359.5 1222.78 362.4C1221.78 365.3 1221.28 368.45 1221.28 371.85ZM1343.3 349.8C1337.2 349.9 1331.75 351.1 1326.95 353.4C1322.15 355.6 1318.7 358.95 1316.6 363.45V411H1296.5V332.4H1314.95V349.2C1316.35 346.5 1318 344.1 1319.9 342C1321.8 339.8 1323.85 337.9 1326.05 336.3C1328.25 334.7 1330.45 333.5 1332.65 332.7C1334.95 331.8 1337.15 331.35 1339.25 331.35C1340.35 331.35 1341.15 331.35 1341.65 331.35C1342.25 331.35 1342.8 331.4 1343.3 331.5V349.8ZM1408.21 411L1385.41 376.95L1374.61 387.6V411H1354.51V301.5H1374.61V367.95L1406.11 332.55H1427.56L1398.31 365.85L1429.66 411H1408.21Z" fill="#F0F8FF"/>
<path fill-rule="evenodd" clip-rule="evenodd" d="M1470 95H1507V470H70V485H1507H1522V470V95V80H1507H1470V95Z" fill="#F0F8FF"/>
<defs>
<clipPath id="clip0">
<rect x="70" y="117" width="368" height="368" fill="white"/>
</clipPath>
</defs>
</svg>
